# xmcd
#
# Track frame offsets:
#	150
#	13975
#	30523
#	47837
#	64694
#	79328
#	94479
#	112142
#	131148
#	146967
#	162176
#	177592
#	198390
#	199357
#	200362
#	201350
#	202637
#	203787
#	204842
#	205875
#
# Disc length: 2751 seconds
#
# Revision: 0
# Processed by: cddbd v1.5.2PL0 Copyright (c) Steve Scherf et al.
# Submitted via: audiograbber 1.83.01
#
DISCID=3a0abd14
DTITLE=Various Artist - CDX 609
DYEAR=2014
DGENRE=Country
TTITLE0=Dylan Scott - Lay It On Me
TTITLE1=Blake Shelton ft. Ashley Monroe - Lonely Tonight
TTITLE2=Josh Dorr - Save Your Breath (Single Edit)
TTITLE3=Sam Hunt - Take Your Time (Radio Edit)
TTITLE4=Vince Hatfield - Pray For Me
TTITLE5=Jacob Martin Band - Take It To The Moonlight
TTITLE6=Teea Goans - All I Want For Christmas Is You
TTITLE7=Billy Dawson - Christmas With Jesus
TTITLE8=Larry Weiss - Christmas Without You
TTITLE9=Rusty Rierson - Crazy Christmas Tango
TTITLE10=Batson Haines - Santa's Having A Tailgate
TTITLE11=Teea Goans - They Saw A King
TTITLE12=Crab Apple Lane  - Home Town Country (Liner)
TTITLE13=Crab Apple Lane  - Kickin' Country (Liner)
TTITLE14=Crab Apple Lane  - More of the Country You Love (Liner)
TTITLE15=Crab Apple Lane  - Our New Single (Liner)
TTITLE16=Crab Apple Lane  - Super Country (Liner)
TTITLE17=Crab Apple Lane  - The Best In Country (Liner)
TTITLE18=Crab Apple Lane  - Today's Best Country (Liner)
TTITLE19=Crab Apple Lane  - Today's Hot Country Music (Liner)
EXTD=
EXTT0=
EXTT1=
EXTT2=
EXTT3=
EXTT4=
EXTT5=
EXTT6=
EXTT7=
EXTT8=
EXTT9=
EXTT10=
EXTT11=
EXTT12=
EXTT13=
EXTT14=
EXTT15=
EXTT16=
EXTT17=
EXTT18=
EXTT19=
PLAYORDER=
